<?xml version="1.0" standalone="no"?>
<!DOCTYPE svg PUBLIC "-//W3C//DTD SVG 20010904//EN"
 "http://www.w3.org/TR/2001/REC-SVG-20010904/DTD/svg10.dtd">
<svg version="1.0" xmlns="http://www.w3.org/2000/svg"
 width="417.000000pt" height="417.000000pt" viewBox="0 0 417.000000 417.000000"
 preserveAspectRatio="xMidYMid meet">

<g transform="translate(0.000000,417.000000) scale(0.100000,-0.100000)"
fill="#000000" stroke="none">
<path d="M1925 4023 c-79 -5 -243 -32 -326 -53 -377 -96 -734 -311 -974 -588
-453 -520 -598 -1234 -384 -1886 230 -702 838 -1204 1572 -1301 597 -78 1197
124 1618 544 463 464 655 1132 514 1791 -55 258 -202 568 -370 775 -126 157
-318 328 -485 433 -326 205 -764 312 -1165 285z m-365 -1360 c0 -9 7 3 -390
-683 -40 -69 -119 -207 -177 -307 l-105 -183 -269 0 c-149 0 -268 3 -266 8 2
4 54 93 114 197 61 105 169 291 240 415 71 124 172 298 223 387 l94 163 260 3
c144 1 264 3 269 5 4 1 7 -1 7 -5z m657 -10 c-2 -5 -68 -120 -147 -256 -119
-208 -142 -254 -142 -290 -2 -81 46 -135 126 -144 112 -13 187 94 142 202 -12
29 -55 66 -89 78 -8 2 203 371 226 394 11 11 25 5 84 -36 163 -115 262 -304
263 -501 0 -272 -202 -525 -475 -595 -220 -56 -480 39 -622 227 -97 129 -127
223 -121 392 3 104 8 131 32 188 22 54 120 234 180 331 10 15 34 17 279 17
147 0 266 -3 264 -7z"/>
</g>
</svg>
