<?xml version="1.0" standalone="no"?>
<!DOCTYPE svg PUBLIC "-//W3C//DTD SVG 20010904//EN"
 "http://www.w3.org/TR/2001/REC-SVG-20010904/DTD/svg10.dtd">
<svg version="1.0" xmlns="http://www.w3.org/2000/svg"
 width="348.000000pt" height="348.000000pt" viewBox="0 0 348.000000 348.000000"
 preserveAspectRatio="xMidYMid meet">

<g transform="translate(0.000000,348.000000) scale(0.100000,-0.100000)"
fill="#000000" stroke="none">
<path d="M1031 3369 c-21 -20 -23 -28 -19 -89 10 -129 141 -380 370 -707 43
-62 78 -116 78 -120 -1 -4 -45 -36 -98 -71 -310 -200 -594 -568 -712 -920
-107 -320 -116 -678 -23 -910 l26 -64 -28 -57 c-17 -35 -29 -79 -33 -118 -4
-56 -2 -64 21 -87 37 -37 102 -36 185 4 l63 29 77 -39 c96 -48 213 -83 363
-107 165 -26 711 -26 878 1 150 23 267 58 366 107 l79 40 61 -27 c34 -16 85
-30 117 -32 51 -4 59 -2 83 23 25 24 27 32 23 86 -3 41 -14 79 -39 126 l-34
68 32 96 c118 356 26 864 -227 1249 -163 247 -415 490 -618 594 l-33 17 49 57
c238 277 360 605 262 704 -46 46 -111 32 -199 -41 -93 -78 -172 -103 -259 -82
-26 7 -144 59 -262 116 -233 113 -371 164 -465 172 -52 4 -63 2 -84 -18z
m1042 -1634 c31 -10 57 -24 57 -29 0 -12 -64 -164 -73 -173 -3 -3 -26 3 -51
12 -34 13 -65 16 -120 13 -113 -7 -180 -54 -221 -152 l-15 -36 205 0 c113 0
205 -3 205 -6 0 -3 -7 -30 -16 -60 l-15 -54 -202 -2 -202 -3 -3 -37 -3 -38
221 0 c206 0 221 -1 216 -17 -2 -10 -10 -37 -17 -60 l-12 -43 -189 0 c-144 0
-188 -3 -188 -12 0 -7 14 -36 30 -65 55 -96 185 -142 305 -109 33 9 66 18 74
19 16 2 86 -158 76 -173 -11 -18 -141 -52 -220 -57 -236 -15 -450 126 -509
336 l-17 61 -70 0 c-38 0 -69 3 -69 6 0 3 7 30 16 60 l15 54 45 0 44 0 0 40 0
40 -60 0 c-33 0 -60 3 -60 7 0 3 8 30 17 60 l17 53 58 0 c49 0 58 3 58 18 0
10 15 49 33 87 63 131 181 231 316 267 84 23 240 19 324 -7z"/>
</g>
</svg>
