<?xml version="1.0" standalone="no"?>
<!DOCTYPE svg PUBLIC "-//W3C//DTD SVG 20010904//EN"
 "http://www.w3.org/TR/2001/REC-SVG-20010904/DTD/svg10.dtd">
<svg version="1.0" xmlns="http://www.w3.org/2000/svg"
 width="900.000000pt" height="900.000000pt" viewBox="0 0 900.000000 900.000000"
 preserveAspectRatio="xMidYMid meet">

<g transform="translate(0.000000,900.000000) scale(0.100000,-0.100000)"
fill="#000000" stroke="none">
<path d="M4810 7804 c-421 -38 -816 -159 -1156 -354 -418 -240 -726 -569 -933
-993 -103 -212 -171 -407 -225 -647 l-23 -105 -222 -3 c-121 -1 -221 -4 -221
-7 0 -2 -22 -113 -50 -246 -28 -133 -50 -246 -50 -250 0 -5 110 -9 245 -9
l245 0 0 -182 c0 -101 3 -213 7 -250 l6 -68 -201 0 -200 0 -6 -27 c-3 -16 -26
-125 -51 -243 -25 -119 -45 -221 -45 -228 0 -9 66 -12 288 -12 l288 0 33 -143
c193 -829 605 -1409 1219 -1716 259 -130 509 -201 867 -247 186 -24 606 -24
770 0 226 33 431 87 611 163 l84 35 0 389 c0 214 -3 389 -6 389 -3 0 -27 -17
-53 -38 -263 -218 -600 -322 -1041 -323 -265 0 -466 36 -691 127 -453 181
-749 489 -924 959 -36 96 -105 351 -105 387 0 17 56 18 1128 18 l1128 0 48
233 c26 127 50 242 53 255 l5 22 -1220 0 -1219 0 -7 31 c-8 40 -8 417 0 447
l6 22 1272 0 1272 0 47 243 c26 133 48 248 47 255 0 9 -265 12 -1291 12
l-1291 0 7 53 c20 145 114 384 223 567 292 488 691 759 1230 834 512 72 918
-22 1300 -302 41 -29 76 -52 78 -50 4 5 154 701 151 704 -1 1 -38 22 -82 46
-207 117 -437 192 -720 234 -96 15 -523 27 -625 18z"/>
</g>
</svg>
