<?xml version="1.0" standalone="no"?>
<!DOCTYPE svg PUBLIC "-//W3C//DTD SVG 20010904//EN"
 "http://www.w3.org/TR/2001/REC-SVG-20010904/DTD/svg10.dtd">
<svg version="1.0" xmlns="http://www.w3.org/2000/svg"
 width="558.000000pt" height="531.000000pt" viewBox="0 0 558.000000 531.000000"
 preserveAspectRatio="xMidYMid meet">

<g transform="translate(0.000000,531.000000) scale(0.100000,-0.100000)"
fill="#000000" stroke="none">
<path d="M2594 5040 c-144 -26 -267 -93 -379 -205 -91 -91 -144 -175 -182
-290 -23 -71 -26 -96 -26 -215 0 -119 3 -144 26 -215 38 -115 91 -199 182
-290 91 -91 175 -144 290 -182 71 -23 96 -26 215 -26 119 0 144 3 215 26 114
38 198 90 290 182 91 91 144 175 182 290 23 71 26 96 26 215 0 119 -3 144 -26
215 -38 115 -91 199 -182 290 -139 140 -284 203 -475 210 -58 2 -128 0 -156
-5z m232 -161 c164 -29 320 -149 394 -303 232 -480 -266 -978 -746 -746 -343
166 -419 624 -148 894 131 132 314 189 500 155z"/>
<path d="M2667 4630 c-21 -6 -50 -16 -66 -24 -42 -22 -98 -90 -112 -135 -8
-27 -18 -41 -29 -41 -11 0 -20 -10 -22 -25 -4 -19 -1 -25 13 -25 14 0 19 -7
19 -25 0 -15 -6 -25 -14 -25 -7 0 -16 -11 -18 -25 -4 -20 -1 -25 17 -25 17 0
26 -12 44 -55 41 -99 111 -139 241 -138 109 0 140 12 140 53 0 35 2 34 -43 15
-45 -19 -127 -19 -170 -1 -38 16 -82 61 -96 99 l-11 27 130 0 130 0 0 25 0 25
-135 0 -135 0 0 25 0 25 144 0 144 0 4 25 5 25 -144 0 c-128 0 -144 2 -139 16
3 9 6 20 6 24 0 18 66 83 97 96 43 18 110 18 163 -1 23 -8 44 -15 46 -15 2 0
4 14 4 30 0 23 -6 33 -25 40 -38 15 -146 20 -188 10z"/>
<path d="M1688 4171 c-198 -133 -358 -294 -493 -496 -84 -126 -193 -341 -179
-354 10 -10 136 -63 139 -58 1 1 14 31 29 67 114 271 350 550 608 719 l86 58
-34 61 c-19 34 -39 64 -44 67 -5 3 -55 -26 -112 -64z"/>
<path d="M3617 4188 c-53 -93 -54 -83 10 -124 258 -163 504 -449 624 -724 18
-41 33 -76 34 -77 3 -5 129 48 139 58 14 13 -95 228 -179 354 -91 136 -197
257 -310 355 -92 80 -261 200 -281 200 -7 0 -23 -19 -37 -42z"/>
<path d="M2671 3193 c-15 -13 -36 -72 -77 -213 -103 -364 -88 -327 -136 -333
-45 -6 -81 -28 -112 -71 -18 -23 -22 -45 -24 -137 l-4 -109 -54 0 c-45 0 -59
-4 -79 -25 l-25 -24 0 -991 0 -991 25 -24 24 -25 511 0 511 0 24 25 25 24 0
991 0 991 -25 24 c-20 21 -34 25 -79 25 l-54 0 -4 109 c-2 92 -6 114 -24 137
-31 43 -67 65 -112 71 -48 6 -33 -31 -136 333 -59 207 -72 230 -126 230 -15 0
-37 -8 -49 -17z m77 -452 c12 -43 22 -81 22 -85 0 -3 -22 -6 -50 -6 -27 0 -50
3 -50 6 0 19 44 164 50 164 4 0 17 -35 28 -79z m212 -331 l0 -80 -240 0 -240
0 0 80 0 80 240 0 240 0 0 -80z m160 -1120 l0 -880 -80 0 -80 0 0 135 c0 131
-1 137 -25 160 -24 25 -26 25 -215 25 -189 0 -191 0 -215 -25 -24 -23 -25 -29
-25 -160 l0 -135 -80 0 -80 0 0 880 0 880 400 0 400 0 0 -880z m-320 -800 l0
-80 -80 0 -80 0 0 80 0 80 80 0 80 0 0 -80z"/>
<path d="M2480 1930 l0 -80 80 0 80 0 0 80 0 80 -80 0 -80 0 0 -80z"/>
<path d="M2800 1930 l0 -80 80 0 80 0 0 80 0 80 -80 0 -80 0 0 -80z"/>
<path d="M2480 1610 l0 -80 80 0 80 0 0 80 0 80 -80 0 -80 0 0 -80z"/>
<path d="M2800 1610 l0 -80 80 0 80 0 0 80 0 80 -80 0 -80 0 0 -80z"/>
<path d="M2480 1290 l0 -80 80 0 80 0 0 80 0 80 -80 0 -80 0 0 -80z"/>
<path d="M2800 1290 l0 -80 80 0 80 0 0 80 0 80 -80 0 -80 0 0 -80z"/>
<path d="M2480 970 l0 -80 80 0 80 0 0 80 0 80 -80 0 -80 0 0 -80z"/>
<path d="M2800 970 l0 -80 80 0 80 0 0 80 0 80 -80 0 -80 0 0 -80z"/>
<path d="M914 3120 c-144 -26 -267 -93 -379 -205 -91 -91 -144 -175 -182 -290
-23 -71 -26 -96 -26 -215 0 -119 3 -144 26 -215 38 -115 91 -199 182 -290 91
-91 175 -144 290 -182 71 -23 96 -26 215 -26 119 0 144 3 215 26 114 38 198
90 290 182 91 91 144 175 182 290 23 71 26 96 26 215 0 119 -3 144 -26 215
-38 115 -91 199 -182 290 -139 140 -284 203 -475 210 -58 2 -128 0 -156 -5z
m232 -161 c98 -17 213 -79 288 -155 271 -270 195 -728 -148 -894 -480 -232
-978 266 -746 746 109 226 355 349 606 303z"/>
<path d="M959 2696 c-67 -24 -109 -57 -139 -110 -17 -28 -30 -59 -30 -68 0
-11 -8 -18 -20 -18 -11 0 -20 -4 -20 -9 0 -5 -3 -16 -6 -25 -4 -12 0 -16 15
-16 16 0 21 -6 21 -25 0 -16 -6 -25 -15 -25 -8 0 -15 -4 -15 -9 0 -5 -3 -16
-6 -25 -5 -12 0 -16 18 -16 20 0 27 -8 37 -41 7 -24 30 -59 56 -84 67 -68 166
-90 285 -64 49 10 50 12 50 46 0 29 -3 34 -17 28 -43 -17 -121 -28 -154 -21
-52 9 -100 45 -127 94 l-23 42 129 0 130 0 4 25 5 25 -138 0 -139 0 0 25 0 25
144 0 c147 0 156 2 156 41 0 5 -64 9 -145 9 -80 0 -145 2 -145 5 0 18 43 86
65 103 58 46 155 53 224 17 l31 -16 0 40 c0 39 0 39 -50 50 -67 14 -136 13
-181 -3z"/>
<path d="M4274 3120 c-144 -26 -267 -93 -379 -205 -91 -91 -144 -175 -182
-290 -23 -71 -26 -96 -26 -215 0 -119 3 -144 26 -215 38 -115 91 -199 182
-290 91 -91 175 -144 290 -182 71 -23 96 -26 215 -26 119 0 144 3 215 26 114
38 198 90 290 182 91 91 144 175 182 290 23 71 26 96 26 215 0 119 -3 144 -26
215 -38 115 -91 199 -182 290 -139 140 -284 203 -475 210 -58 2 -128 0 -156
-5z m232 -161 c98 -17 213 -79 288 -155 271 -270 195 -728 -148 -894 -480
-232 -978 266 -746 746 109 226 355 349 606 303z"/>
<path d="M4367 2700 c-21 -6 -50 -16 -66 -24 -42 -22 -98 -90 -112 -135 -8
-27 -18 -41 -29 -41 -11 0 -20 -10 -22 -25 -4 -19 -1 -25 13 -25 14 0 19 -7
19 -25 0 -15 -6 -25 -14 -25 -7 0 -16 -11 -18 -25 -4 -20 -1 -25 17 -25 17 0
26 -12 44 -55 41 -99 111 -139 241 -138 109 0 140 12 140 53 0 35 2 34 -43 15
-45 -19 -127 -19 -170 -1 -38 16 -82 61 -96 99 l-11 27 130 0 130 0 0 25 0 25
-135 0 -135 0 0 25 0 25 144 0 144 0 4 25 5 25 -144 0 c-128 0 -144 2 -139 16
3 9 6 20 6 24 0 18 66 83 97 96 43 18 110 18 163 -1 23 -8 44 -15 46 -15 2 0
4 14 4 30 0 23 -6 33 -25 40 -38 15 -146 20 -188 10z"/>
<path d="M1301 1610 c-30 -21 -56 -42 -59 -44 -8 -9 75 -111 167 -204 98 -101
192 -177 312 -255 81 -52 229 -132 233 -125 2 2 17 33 34 70 l30 67 -76 42
c-206 112 -368 244 -509 412 -35 42 -68 77 -72 77 -4 0 -31 -18 -60 -40z"/>
<path d="M4007 1573 c-146 -175 -378 -357 -554 -435 -24 -10 -43 -21 -43 -23
0 -3 14 -36 31 -74 l31 -70 82 41 c169 84 336 207 473 346 87 87 179 200 170
208 -15 15 -112 84 -118 84 -4 0 -36 -35 -72 -77z"/>
</g>
</svg>
